<svg xmlns="http://www.w3.org/2000/svg" viewBox="0 0 30.25 30.26"><defs><style>.cls-1{stroke:#000;stroke-miterlimit:10;stroke-width:0.25px;}</style></defs><title>Ресурс 1</title><g id="Слой_2" data-name="Слой 2"><g id="Layer_1" data-name="Layer 1"><path class="cls-1" d="M3.73,16.42a1.24,1.24,0,0,1,.46.11l.91.41.13-.06.41-.17L6,15.78a1.54,1.54,0,0,1,.39-.54A2.9,2.9,0,0,1,8.44,15a1.29,1.29,0,0,1,1,.8l.36.93.13.05a3.65,3.65,0,0,1,.41.18l.91-.41a1.59,1.59,0,0,1,.76-.09,1.89,1.89,0,0,1,.82.51c.16.14.32.3.47.46a1.82,1.82,0,0,1,.48.79,1.23,1.23,0,0,1-.08.78l-.4.91c.08.18.15.36.22.54l.55.21.38.15a1.48,1.48,0,0,1,.56.43,2.94,2.94,0,0,1,.24,2,1.26,1.26,0,0,1-.8,1l-.93.36c-.07.18-.14.36-.22.54l.4.91a1.64,1.64,0,0,1,.1.68,2.91,2.91,0,0,1-1.26,1.61,1.28,1.28,0,0,1-1.29.17l-.91-.41-.1,0a3.38,3.38,0,0,1-.44.18l-.21.55-.15.38a1.55,1.55,0,0,1-.44.58,3,3,0,0,1-2,.22,1.26,1.26,0,0,1-1-.8l-.36-.93-.1,0-.44-.19-.91.41a1.7,1.7,0,0,1-.66.1c-.67-.08-1.21-.73-1.63-1.27a1.28,1.28,0,0,1-.17-1.29l.41-.91c-.08-.18-.15-.36-.22-.54L1,24.26a1.44,1.44,0,0,1-.55-.41,2.84,2.84,0,0,1-.25-2,1.28,1.28,0,0,1,.8-1l.93-.36c.07-.18.14-.36.22-.54-.13-.3-.27-.6-.41-.91a1.59,1.59,0,0,1-.09-.7A3,3,0,0,1,2.9,16.69a1.23,1.23,0,0,1,.78-.27Zm6.71,10.39a.82.82,0,0,1,.17.05l1.17.53s0,0,.06,0a6.37,6.37,0,0,0,.73-.74c0-.06,0-.14-.06-.21s-.11-.26-.17-.39-.15-.33-.22-.49l0-.12a.49.49,0,0,1,0-.11c-.1-.41.25-.77.42-1.33l0-.06.06-.1a.61.61,0,0,1,.2-.19.31.31,0,0,1,.1-.05L14,23.1s0,0,0-.07a7.22,7.22,0,0,0,0-1c0-.08-.11-.08-.19-.11l-.4-.15-.5-.19-.12-.05-.1,0c-.37-.22-.37-.72-.65-1.24l0-.05A.45.45,0,0,1,12,20a.66.66,0,0,1,0-.28.49.49,0,0,1,0-.11l.52-1.17s0,0,0-.06a6.29,6.29,0,0,0-.73-.73c-.06-.06-.14,0-.22.06l-.39.17-.48.22-.12.05-.11,0c-.42.1-.79-.26-1.33-.42l-.06,0L9,17.73a.52.52,0,0,1-.19-.2.31.31,0,0,1-.05-.1l-.46-1.2s0,0-.07,0a7.21,7.21,0,0,0-1,0c-.08,0-.08.11-.11.19l-.15.4c-.06.17-.13.33-.19.5l0,.12a.31.31,0,0,1,0,.1c-.22.37-.74.38-1.24.65l0,0-.11,0a.66.66,0,0,1-.28,0l-.11,0-1.17-.52s0,0-.07,0a7.19,7.19,0,0,0-.73.73c0,.06,0,.14.06.22l.18.39c.07.16.14.32.22.48l0,.12a.49.49,0,0,1,0,.11c.1.41-.26.78-.43,1.33l0,.06a.47.47,0,0,1-.05.1.52.52,0,0,1-.2.19l-.1,0L1.43,22s0,0,0,.08a8.85,8.85,0,0,0,0,1c0,.08.12.08.2.11l.4.15.49.19.13,0a.47.47,0,0,1,.1.05c.36.22.37.73.64,1.24l0,0c0,.05,0,.06,0,.11a.66.66,0,0,1,0,.28.49.49,0,0,1,0,.11c-.17.39-.35.78-.53,1.18,0,0,0,0,0,.06a8.5,8.5,0,0,0,.74.73c.06,0,.14,0,.21-.06l.39-.18.49-.22.12-.05.11,0c.41-.1.79.26,1.33.43l.06,0,.1.05a.61.61,0,0,1,.19.2.47.47,0,0,1,0,.1l.46,1.21s0,0,.07,0a6,6,0,0,0,1,0c.07,0,.08-.12.11-.2l.15-.4.19-.49,0-.13a.47.47,0,0,1,.05-.1c.22-.37.74-.38,1.24-.64a.66.66,0,0,1,.21-.07ZM7.75,19.48a3.13,3.13,0,0,1,2.77,1.81,3.09,3.09,0,0,1-.08,2.64,3.13,3.13,0,0,1-3.86,1.42A3.15,3.15,0,0,1,4.73,22a3.12,3.12,0,0,1,2.95-2.53ZM24.64,2.62a1.72,1.72,0,0,1,1,.36s.23.19.42.37a9.16,9.16,0,0,1,1.22,1.27,1.73,1.73,0,0,1,.21,1.73l-.77,1.71c.19.4.36.82.51,1.24L29,10a1.77,1.77,0,0,1,1.07,1.49c0,.06,0,.13,0,.2a13.09,13.09,0,0,1,0,1.88,1.9,1.9,0,0,1-.28.84A1.73,1.73,0,0,1,29,15l-1.77.67a10.12,10.12,0,0,1-.49,1.18l0,.06.77,1.73a1.72,1.72,0,0,1-.23,1.73l0,.05A10.8,10.8,0,0,1,25.64,22a1.73,1.73,0,0,1-1.7.22l0,0-1.71-.77A10.45,10.45,0,0,1,21,22l-.67,1.77a1.77,1.77,0,0,1-1.45,1.07H18.7a14,14,0,0,1-2.05,0l-.19-.05c-.14-.09-.2-.1-.29-.25a.65.65,0,0,1,.39-.93,1.27,1.27,0,0,1,.39,0,11.75,11.75,0,0,0,1.78,0,.46.46,0,0,0,.4-.28l.69-1.83.08-.21a1,1,0,0,1,.23-.29,1.77,1.77,0,0,1,.38-.15,9,9,0,0,0,1.35-.57.94.94,0,0,1,.2-.08.7.7,0,0,1,.38,0c.66.3,1.32.62,2,.9.29.12.58-.17.87-.43l.59-.6a4.12,4.12,0,0,0,.28-.31.57.57,0,0,0,.18-.59l-.8-1.79-.09-.21a.78.78,0,0,1,0-.37,2,2,0,0,1,.16-.37A8.41,8.41,0,0,0,26.14,15l.08-.17a.92.92,0,0,1,.29-.23c.69-.26,1.38-.5,2-.78.28-.11.29-.49.31-.86a10.74,10.74,0,0,0,0-1.5c0-.3-.42-.42-.76-.55L27,10.52l-.23-.08-.21-.08-.16-.1A2.05,2.05,0,0,1,26,9.5a8.15,8.15,0,0,0-.51-1.13l-.06-.17a.92.92,0,0,1,0-.37c.3-.67.61-1.33.89-2,.12-.3-.17-.59-.43-.88a10.89,10.89,0,0,0-1.05-1c-.27-.21-.7,0-1.09.23l-1.15.51-.2.09a.83.83,0,0,1-.38,0,1.65,1.65,0,0,1-.36-.16,8.89,8.89,0,0,0-1.4-.56L20.13,4a1.09,1.09,0,0,1-.23-.29c-.26-.69-.5-1.38-.77-2-.11-.26-.44-.29-.77-.3a11.75,11.75,0,0,0-1.57,0,.48.48,0,0,0-.39.29c-.24.61-.47,1.22-.7,1.83l-.08.21a.82.82,0,0,1-.23.29,1.58,1.58,0,0,1-.38.15,9.62,9.62,0,0,0-1.33.56l0,0-.18.06a.78.78,0,0,1-.37,0c-.67-.29-1.33-.61-2-.89-.3-.12-.59.17-.87.43s-.41.39-.6.6-.19.2-.27.3a.6.6,0,0,0-.19.6L10,7.62l.09.21a.92.92,0,0,1,0,.37,2.76,2.76,0,0,1-.28.61A8.81,8.81,0,0,0,9.38,10l-.08.17a1.09,1.09,0,0,1-.29.23c-.68.26-1.37.5-2,.78-.26.1-.29.45-.3.79a10.27,10.27,0,0,0,0,1.57v.2a.75.75,0,0,1-.2.33.65.65,0,0,1-1-.23,1,1,0,0,1-.06-.29c0-.28,0-.56,0-.84a3.69,3.69,0,0,1,.32-2.06A1.71,1.71,0,0,1,6.51,10L8.28,9.3a10.26,10.26,0,0,1,.49-1.19l0,0L8,6.33a1.76,1.76,0,0,1,.23-1.74l0,0A10.8,10.8,0,0,1,9.88,3a1.73,1.73,0,0,1,1.7-.22h0l1.71.77c.41-.19.82-.36,1.24-.51.22-.59.45-1.18.68-1.77A1.74,1.74,0,0,1,16.72.18a10.29,10.29,0,0,1,2.22,0,1.71,1.71,0,0,1,1.35,1.07L21,3l.09,0a11.63,11.63,0,0,1,1.1.46l.05,0,1.73-.77a1.53,1.53,0,0,1,.71-.14ZM7.72,20.73A1.84,1.84,0,0,0,6,22.32,1.87,1.87,0,0,0,7,24.19a1.87,1.87,0,0,0,2.32-.87A1.85,1.85,0,0,0,8.5,20.9a1.74,1.74,0,0,0-.78-.17ZM17.79,7.79A4.71,4.71,0,0,1,22,14.54a4.71,4.71,0,1,1-8.47-4.14,4.79,4.79,0,0,1,4.19-2.61ZM17.74,9a3.57,3.57,0,0,0-3.38,2.79,3.47,3.47,0,0,0,4.73,3.88A3.51,3.51,0,0,0,21.19,13a3.55,3.55,0,0,0-2-3.64A3.47,3.47,0,0,0,17.74,9Z"/></g></g></svg>