<svg xmlns="http://www.w3.org/2000/svg" viewBox="0 0 66.1 56.4"><defs><style>.cls-1{stroke:#000;stroke-miterlimit:10;stroke-width:0.5px;}</style></defs><title>Ресурс 2</title><g id="Слой_2" data-name="Слой 2"><g id="Layer_1" data-name="Layer 1"><rect class="cls-1" x="7.95" y="13.85" width="7.9" height="1.5"/><rect class="cls-1" x="17.65" y="13.85" width="1.5" height="1.5"/><rect class="cls-1" x="20.85" y="13.85" width="1.5" height="1.5"/><rect class="cls-1" x="7.95" y="18.45" width="4.8" height="1.5"/><rect class="cls-1" x="14.55" y="18.45" width="2.9" height="1.5"/><rect class="cls-1" x="19.35" y="18.45" width="11.1" height="1.5"/><rect class="cls-1" x="39.75" y="37.15" width="5.6" height="1.5"/><rect class="cls-1" x="27.05" y="37.15" width="10.9" height="1.5"/><rect class="cls-1" x="7.95" y="37.15" width="17.1" height="1.5"/><rect class="cls-1" x="41.65" y="27.75" width="1.5" height="1.5"/><rect class="cls-1" x="44.85" y="27.75" width="1.5" height="1.5"/><rect class="cls-1" x="24.95" y="27.75" width="14.7" height="1.5"/><rect class="cls-1" x="17.45" y="27.75" width="5.8" height="1.5"/><rect class="cls-1" x="48.15" y="27.75" width="9.8" height="1.5"/><rect class="cls-1" x="17.45" y="23.15" width="7.6" height="1.5"/><rect class="cls-1" x="39.35" y="23.15" width="18.5" height="1.5"/><rect class="cls-1" x="26.75" y="23.15" width="1.5" height="1.5"/><rect class="cls-1" x="29.95" y="23.15" width="1.5" height="1.5"/><rect class="cls-1" x="33.15" y="23.15" width="1.5" height="1.5"/><rect class="cls-1" x="36.35" y="23.15" width="1.5" height="1.5"/><rect class="cls-1" x="17.65" y="32.45" width="11.3" height="1.5"/><rect class="cls-1" x="30.75" y="32.45" width="6.2" height="1.5"/><rect class="cls-1" x="11.15" y="32.45" width="1.5" height="1.5"/><rect class="cls-1" x="7.95" y="32.45" width="1.5" height="1.5"/><rect class="cls-1" x="14.35" y="32.45" width="1.5" height="1.5"/><path class="cls-1" d="M63,.25H3A2.69,2.69,0,0,0,.25,3v43.2A2.8,2.8,0,0,0,3.05,49h21.1v5.7h-4.5v1.5h26.8v-1.5H42V49h21.1a2.8,2.8,0,0,0,2.8-2.8V3A2.94,2.94,0,0,0,63,.25Zm-22.6,54.3H25.55v-5.7h14.8Zm23.9-8.4a1.32,1.32,0,0,1-1.3,1.3H3a1.24,1.24,0,0,1-1.2-1.3v-1.9h62.5Zm0-3.4H1.75V9h62.5Zm0-35.3H1.75V3A1.31,1.31,0,0,1,3,1.65H63A1.32,1.32,0,0,1,64.25,3Z"/></g></g></svg>