<svg xmlns="http://www.w3.org/2000/svg" viewBox="0 0 36.5 26.84"><defs><style>.cls-1{fill:none;stroke:#000;stroke-linecap:round;stroke-linejoin:round;stroke-width:1.5px;}</style></defs><title>Ресурс 3</title><g id="Слой_2" data-name="Слой 2"><g id="Layer_1" data-name="Layer 1"><path class="cls-1" d="M22.94,10.14a3.71,3.71,0,0,1-.06.67,4.69,4.69,0,0,1-4.62,4h0s0,0,0,0h0a4.7,4.7,0,0,1-4.63-4,3.6,3.6,0,0,1-.06-.66A4.53,4.53,0,0,1,14.08,8a.18.18,0,0,0,0-.09,1.57,1.57,0,0,0,.18-.31h0a4.7,4.7,0,0,1,3.94-2.14,4.63,4.63,0,0,1,4,2.23,2.38,2.38,0,0,1,.18.3A4.56,4.56,0,0,1,22.94,10.14Z"/><path class="cls-1" d="M18.25,14.82h0S18.25,14.82,18.25,14.82Z"/><path class="cls-1" d="M27.63,24.21v1.88H8.86V24.21a9.38,9.38,0,0,1,9.38-9.38h0a9.38,9.38,0,0,1,9.37,9.38Z"/><path class="cls-1" d="M18.24,14.83A9.39,9.39,0,0,0,9.29,21.4H.75V19.52a9.38,9.38,0,0,1,9.39-9.38,9.28,9.28,0,0,1,3.47.66"/><path class="cls-1" d="M18.25,14.82h0S18.25,14.82,18.25,14.82Z"/><path class="cls-1" d="M14.83,5.44a4.67,4.67,0,0,1-.52,2.14h0a1,1,0,0,1-.18.31.18.18,0,0,1,0,.09,4.69,4.69,0,1,1,.75-2.55Z"/><path class="cls-1" d="M18.25,14.83s0,0,0,0Z"/><path class="cls-1" d="M22.88,10.81a9.18,9.18,0,0,1,3.48-.67,9.39,9.39,0,0,1,9.39,9.38V21.4H27.2a9.4,9.4,0,0,0-8.94-6.57"/><path class="cls-1" d="M31.06,5.44A4.7,4.7,0,0,1,22.4,8a2.38,2.38,0,0,0-.18-.3,4.87,4.87,0,0,1-.55-2.23,4.7,4.7,0,0,1,9.39,0Z"/></g></g></svg>